<?xml version="1.0" ?><!DOCTYPE svg  PUBLIC '-//W3C//DTD SVG 1.1//EN'  'http://www.w3.org/Graphics/SVG/1.1/DTD/svg11.dtd'><svg enable-background="new 0 0 64 64" height="64px" id="Слой_3" version="1.1" viewBox="0 0 64 64" width="64px" xml:space="preserve" xmlns="http://www.w3.org/2000/svg" xmlns:xlink="http://www.w3.org/1999/xlink"><path d="  M53.055,25.968c-0.701,1.22-1.629,0.685-2.332,1.904s0.227,1.755-0.477,2.976c-0.701,1.222-1.633,0.687-2.334,1.906" fill="none" stroke="#1B1D1E" stroke-linecap="round" stroke-linejoin="round" stroke-miterlimit="10" stroke-width="2.7"/><path d="  M4.332,45.93c0.491,0,0.888,0.397,0.888,0.888c0,0.491-0.396,0.889-0.888,0.889s-0.888-0.397-0.888-0.889" fill="none" stroke="#1B1D1E" stroke-linecap="round" stroke-linejoin="round" stroke-miterlimit="10" stroke-width="2.7"/><line fill="none" stroke="#1B1D1E" stroke-linecap="round" stroke-linejoin="round" stroke-miterlimit="10" stroke-width="2.7" x1="20.267" x2="16.902" y1="30.416" y2="28.306"/><path d="  M35.24,51.13c0,1.797-1.457,3.253-3.252,3.253c-1.797,0-3.253-1.456-3.253-3.253s1.456-3.252,3.253-3.252" fill="none" stroke="#1B1D1E" stroke-linecap="round" stroke-linejoin="round" stroke-miterlimit="10" stroke-width="2.7"/><path d="  M43.516,54.68h1.879c1.053,0,1.908,0.855,1.908,1.91l0,0c0,1.055-0.855,1.91-1.908,1.91H18.582c-1.055,0-1.91-0.855-1.91-1.91l0,0  c0-1.055,0.855-1.91,1.91-1.91h5.843" fill="none" stroke="#1B1D1E" stroke-linecap="round" stroke-linejoin="round" stroke-miterlimit="10" stroke-width="2.7"/><line fill="none" stroke="#1B1D1E" stroke-linecap="round" stroke-linejoin="round" stroke-miterlimit="10" stroke-width="2.7" x1="18.582" x2="11.3" y1="58.5" y2="58.5"/><line fill="none" stroke="#1B1D1E" stroke-linecap="round" stroke-linejoin="round" stroke-miterlimit="10" stroke-width="2.7" x1="51.377" x2="54.029" y1="58.5" y2="58.5"/><path d="  M47.795,47.678c-0.199,0.007-0.398,0.01-0.598,0.01c-6.324,0-11.904-3.195-15.209-8.058" fill="none" stroke="#1B1D1E" stroke-linecap="round" stroke-linejoin="round" stroke-miterlimit="10" stroke-width="2.7"/><path d="  M31.988,39.63c-3.308,4.863-8.886,8.058-15.211,8.058c-0.199,0-0.398-0.003-0.598-0.01" fill="none" stroke="#1B1D1E" stroke-linecap="round" stroke-linejoin="round" stroke-miterlimit="10" stroke-width="2.7"/><circle cx="16.18" cy="45.336" fill="none" r="2.342" stroke="#1B1D1E" stroke-linecap="round" stroke-linejoin="round" stroke-miterlimit="10" stroke-width="2.7"/><circle cx="31.987" cy="37.286" fill="none" r="2.341" stroke="#1B1D1E" stroke-linecap="round" stroke-linejoin="round" stroke-miterlimit="10" stroke-width="2.7"/><circle cx="47.795" cy="45.336" fill="none" r="2.342" stroke="#1B1D1E" stroke-linecap="round" stroke-linejoin="round" stroke-miterlimit="10" stroke-width="2.7"/><path d="  M45.053,54.679C45.502,52,46.477,49.6,47.82,47.695" fill="none" stroke="#1B1D1E" stroke-linecap="round" stroke-linejoin="round" stroke-miterlimit="10" stroke-width="2.7"/><path d="  M17.992,51.117c-0.483-1.266-1.096-2.423-1.813-3.439" fill="none" stroke="#1B1D1E" stroke-linecap="round" stroke-linejoin="round" stroke-miterlimit="10" stroke-width="2.7"/></svg>